<svg id="visual" viewBox="0 0 900 600" width="900" height="600" xmlns="http://www.w3.org/2000/svg" xmlns:xlink="http://www.w3.org/1999/xlink" version="1.1"><path d="M0 37L15 38C30 39 60 41 90 52C120 63 150 83 180 91C210 99 240 95 270 86C300 77 330 63 360 65C390 67 420 85 450 93C480 101 510 99 540 91C570 83 600 69 630 70C660 71 690 87 720 91C750 95 780 87 810 82C840 77 870 75 885 74L900 73L900 0L885 0C870 0 840 0 810 0C780 0 750 0 720 0C690 0 660 0 630 0C600 0 570 0 540 0C510 0 480 0 450 0C420 0 390 0 360 0C330 0 300 0 270 0C240 0 210 0 180 0C150 0 120 0 90 0C60 0 30 0 15 0L0 0Z" fill="#e7efff"></path><path d="M0 151L15 151C30 151 60 151 90 162C120 173 150 195 180 199C210 203 240 189 270 202C300 215 330 255 360 271C390 287 420 279 450 273C480 267 510 263 540 260C570 257 600 255 630 255C660 255 690 257 720 252C750 247 780 235 810 248C840 261 870 299 885 318L900 337L900 71L885 72C870 73 840 75 810 80C780 85 750 93 720 89C690 85 660 69 630 68C600 67 570 81 540 89C510 97 480 99 450 91C420 83 390 65 360 63C330 61 300 75 270 84C240 93 210 97 180 89C150 81 120 61 90 50C60 39 30 37 15 36L0 35Z" fill="#d2e2ff"></path><path d="M0 193L15 196C30 199 60 205 90 217C120 229 150 247 180 257C210 267 240 269 270 295C300 321 330 371 360 382C390 393 420 365 450 347C480 329 510 321 540 325C570 329 600 345 630 354C660 363 690 365 720 352C750 339 780 311 810 317C840 323 870 363 885 383L900 403L900 335L885 316C870 297 840 259 810 246C780 233 750 245 720 250C690 255 660 253 630 253C600 253 570 255 540 258C510 261 480 265 450 271C420 277 390 285 360 269C330 253 300 213 270 200C240 187 210 201 180 197C150 193 120 171 90 160C60 149 30 149 15 149L0 149Z" fill="#bbd3ff"></path><path d="M0 325L15 331C30 337 60 349 90 354C120 359 150 357 180 358C210 359 240 363 270 382C300 401 330 435 360 451C390 467 420 465 450 463C480 461 510 459 540 456C570 453 600 449 630 454C660 459 690 473 720 460C750 447 780 407 810 408C840 409 870 451 885 472L900 493L900 401L885 381C870 361 840 321 810 315C780 309 750 337 720 350C690 363 660 361 630 352C600 343 570 327 540 323C510 319 480 327 450 345C420 363 390 391 360 380C330 369 300 319 270 293C240 267 210 265 180 255C150 245 120 227 90 215C60 203 30 197 15 194L0 191Z" fill="#d2e2ff"></path><path d="M0 601L15 601C30 601 60 601 90 601C120 601 150 601 180 601C210 601 240 601 270 601C300 601 330 601 360 601C390 601 420 601 450 601C480 601 510 601 540 601C570 601 600 601 630 601C660 601 690 601 720 601C750 601 780 601 810 601C840 601 870 601 885 601L900 601L900 491L885 470C870 449 840 407 810 406C780 405 750 445 720 458C690 471 660 457 630 452C600 447 570 451 540 454C510 457 480 459 450 461C420 463 390 465 360 449C330 433 300 399 270 380C240 361 210 357 180 356C150 355 120 357 90 352C60 347 30 335 15 329L0 323Z" fill="#e7efff"></path></svg>