<svg id="visual" viewBox="0 0 900 600" width="900" height="600" xmlns="http://www.w3.org/2000/svg" xmlns:xlink="http://www.w3.org/1999/xlink" version="1.1"><path d="M0 73L15 83C30 93 60 113 90 111C120 109 150 85 180 75C210 65 240 69 270 75C300 81 330 89 360 91C390 93 420 89 450 89C480 89 510 93 540 100C570 107 600 117 630 119C660 121 690 115 720 108C750 101 780 93 810 99C840 105 870 125 885 135L900 145L900 0L885 0C870 0 840 0 810 0C780 0 750 0 720 0C690 0 660 0 630 0C600 0 570 0 540 0C510 0 480 0 450 0C420 0 390 0 360 0C330 0 300 0 270 0C240 0 210 0 180 0C150 0 120 0 90 0C60 0 30 0 15 0L0 0Z" fill="#e1fff7"></path><path d="M0 253L15 272C30 291 60 329 90 318C120 307 150 247 180 250C210 253 240 319 270 342C300 365 330 345 360 335C390 325 420 325 450 319C480 313 510 301 540 301C570 301 600 313 630 303C660 293 690 261 720 246C750 231 780 233 810 244C840 255 870 275 885 285L900 295L900 143L885 133C870 123 840 103 810 97C780 91 750 99 720 106C690 113 660 119 630 117C600 115 570 105 540 98C510 91 480 87 450 87C420 87 390 91 360 89C330 87 300 79 270 73C240 67 210 63 180 73C150 83 120 107 90 109C60 111 30 91 15 81L0 71Z" fill="#d7fff4"></path><path d="M0 379L15 402C30 425 60 471 90 464C120 457 150 397 180 390C210 383 240 429 270 437C300 445 330 415 360 412C390 409 420 433 450 439C480 445 510 433 540 436C570 439 600 457 630 450C660 443 690 411 720 400C750 389 780 399 810 405C840 411 870 413 885 414L900 415L900 293L885 283C870 273 840 253 810 242C780 231 750 229 720 244C690 259 660 291 630 301C600 311 570 299 540 299C510 299 480 311 450 317C420 323 390 323 360 333C330 343 300 363 270 340C240 317 210 251 180 248C150 245 120 305 90 316C60 327 30 289 15 270L0 251Z" fill="#c9fff1"></path><path d="M0 601L15 601C30 601 60 601 90 601C120 601 150 601 180 601C210 601 240 601 270 601C300 601 330 601 360 601C390 601 420 601 450 601C480 601 510 601 540 601C570 601 600 601 630 601C660 601 690 601 720 601C750 601 780 601 810 601C840 601 870 601 885 601L900 601L900 413L885 412C870 411 840 409 810 403C780 397 750 387 720 398C690 409 660 441 630 448C600 455 570 437 540 434C510 431 480 443 450 437C420 431 390 407 360 410C330 413 300 443 270 435C240 427 210 381 180 388C150 395 120 455 90 462C60 469 30 423 15 400L0 377Z" fill="#b6ffec"></path></svg>