<svg id="visual" viewBox="0 0 900 600" width="900" height="600" xmlns="http://www.w3.org/2000/svg" xmlns:xlink="http://www.w3.org/1999/xlink" version="1.1"><rect x="0" y="0" width="900" height="600" fill="#f1f9ff"></rect><defs><linearGradient id="grad1_0" x1="33.3%" y1="0%" x2="100%" y2="100%"><stop offset="20%" stop-color="#f1f9ff" stop-opacity="1"></stop><stop offset="80%" stop-color="#f1f9ff" stop-opacity="1"></stop></linearGradient></defs><defs><linearGradient id="grad2_0" x1="0%" y1="0%" x2="66.7%" y2="100%"><stop offset="20%" stop-color="#f1f9ff" stop-opacity="1"></stop><stop offset="80%" stop-color="#f1f9ff" stop-opacity="1"></stop></linearGradient></defs><g transform="translate(900, 0)"><path d="M0 324.5C-34.1 309.2 -68.2 293.9 -86.8 267.2C-105.5 240.6 -108.7 202.7 -140.5 193.4C-172.3 184 -232.7 203.4 -262.5 190.7C-292.3 178.1 -291.5 133.5 -296.7 96.4C-302 59.3 -313.2 29.6 -324.5 0L0 0Z" fill="#48b3ff"></path></g><g transform="translate(0, 600)"><path d="M0 -324.5C22.5 -285.4 45 -246.3 78.5 -241.6C112 -236.8 156.4 -266.5 190.7 -262.5C225.1 -258.6 249.4 -221.1 254 -184.6C258.6 -148 243.6 -112.5 252 -81.9C260.5 -51.3 292.5 -25.6 324.5 0L0 0Z" fill="#48b3ff"></path></g></svg>