<svg id="visual" viewBox="0 0 900 600" width="900" height="600" xmlns="http://www.w3.org/2000/svg" xmlns:xlink="http://www.w3.org/1999/xlink" version="1.1"><path d="M0 109L15 108C30 107 60 105 90 102C120 99 150 95 180 93C210 91 240 91 270 106C300 121 330 151 360 155C390 159 420 137 450 141C480 145 510 175 540 192C570 209 600 213 630 204C660 195 690 173 720 164C750 155 780 159 810 164C840 169 870 175 885 178L900 181L900 0L885 0C870 0 840 0 810 0C780 0 750 0 720 0C690 0 660 0 630 0C600 0 570 0 540 0C510 0 480 0 450 0C420 0 390 0 360 0C330 0 300 0 270 0C240 0 210 0 180 0C150 0 120 0 90 0C60 0 30 0 15 0L0 0Z" fill="#d5f6fd"></path><path d="M0 421L15 411C30 401 60 381 90 354C120 327 150 293 180 277C210 261 240 263 270 292C300 321 330 377 360 393C390 409 420 385 450 387C480 389 510 417 540 439C570 461 600 477 630 483C660 489 690 485 720 454C750 423 780 365 810 359C840 353 870 399 885 422L900 445L900 179L885 176C870 173 840 167 810 162C780 157 750 153 720 162C690 171 660 193 630 202C600 211 570 207 540 190C510 173 480 143 450 139C420 135 390 157 360 153C330 149 300 119 270 104C240 89 210 89 180 91C150 93 120 97 90 100C60 103 30 105 15 106L0 107Z" fill="#c0f0ff"></path><path d="M0 601L15 601C30 601 60 601 90 601C120 601 150 601 180 601C210 601 240 601 270 601C300 601 330 601 360 601C390 601 420 601 450 601C480 601 510 601 540 601C570 601 600 601 630 601C660 601 690 601 720 601C750 601 780 601 810 601C840 601 870 601 885 601L900 601L900 443L885 420C870 397 840 351 810 357C780 363 750 421 720 452C690 483 660 487 630 481C600 475 570 459 540 437C510 415 480 387 450 385C420 383 390 407 360 391C330 375 300 319 270 290C240 261 210 259 180 275C150 291 120 325 90 352C60 379 30 399 15 409L0 419Z" fill="#a6e9ff"></path></svg>