<svg id="visual" viewBox="0 0 900 600" width="900" height="600" xmlns="http://www.w3.org/2000/svg" xmlns:xlink="http://www.w3.org/1999/xlink" version="1.1"><path d="M0 79L15 78C30 77 60 75 90 77C120 79 150 85 180 108C210 131 240 171 270 191C300 211 330 211 360 200C390 189 420 167 450 168C480 169 510 193 540 201C570 209 600 201 630 196C660 191 690 189 720 183C750 177 780 167 810 154C840 141 870 125 885 117L900 109L900 0L885 0C870 0 840 0 810 0C780 0 750 0 720 0C690 0 660 0 630 0C600 0 570 0 540 0C510 0 480 0 450 0C420 0 390 0 360 0C330 0 300 0 270 0C240 0 210 0 180 0C150 0 120 0 90 0C60 0 30 0 15 0L0 0Z" fill="#f4e6ff"></path><path d="M0 361L15 350C30 339 60 317 90 324C120 331 150 367 180 373C210 379 240 355 270 367C300 379 330 427 360 434C390 441 420 407 450 387C480 367 510 361 540 367C570 373 600 391 630 395C660 399 690 389 720 377C750 365 780 351 810 364C840 377 870 417 885 437L900 457L900 107L885 115C870 123 840 139 810 152C780 165 750 175 720 181C690 187 660 189 630 194C600 199 570 207 540 199C510 191 480 167 450 166C420 165 390 187 360 198C330 209 300 209 270 189C240 169 210 129 180 106C150 83 120 77 90 75C60 73 30 75 15 76L0 77Z" fill="#eedaff"></path><path d="M0 601L15 601C30 601 60 601 90 601C120 601 150 601 180 601C210 601 240 601 270 601C300 601 330 601 360 601C390 601 420 601 450 601C480 601 510 601 540 601C570 601 600 601 630 601C660 601 690 601 720 601C750 601 780 601 810 601C840 601 870 601 885 601L900 601L900 455L885 435C870 415 840 375 810 362C780 349 750 363 720 375C690 387 660 397 630 393C600 389 570 371 540 365C510 359 480 365 450 385C420 405 390 439 360 432C330 425 300 377 270 365C240 353 210 377 180 371C150 365 120 329 90 322C60 315 30 337 15 348L0 359Z" fill="#e0bbff"></path></svg>