<svg id="visual" viewBox="0 0 900 600" width="900" height="600" xmlns="http://www.w3.org/2000/svg" xmlns:xlink="http://www.w3.org/1999/xlink" version="1.1"><rect x="0" y="0" width="900" height="600" fill="#ffffff"></rect><path d="M259 0L262.2 14.3C265.3 28.7 271.7 57.3 275.5 85.8C279.3 114.3 280.7 142.7 294.7 171.2C308.7 199.7 335.3 228.3 328.8 257C322.3 285.7 282.7 314.3 270 343C257.3 371.7 271.7 400.3 288.5 428.8C305.3 457.3 324.7 485.7 335 514.2C345.3 542.7 346.7 571.3 347.3 585.7L348 600L0 600L0 585.7C0 571.3 0 542.7 0 514.2C0 485.7 0 457.3 0 428.8C0 400.3 0 371.7 0 343C0 314.3 0 285.7 0 257C0 228.3 0 199.7 0 171.2C0 142.7 0 114.3 0 85.8C0 57.3 0 28.7 0 14.3L0 0Z" fill="#ccffed"></path><path d="M219 0L225.8 14.3C232.7 28.7 246.3 57.3 234.3 85.8C222.3 114.3 184.7 142.7 171.7 171.2C158.7 199.7 170.3 228.3 189 257C207.7 285.7 233.3 314.3 229.2 343C225 371.7 191 400.3 182.2 428.8C173.3 457.3 189.7 485.7 186 514.2C182.3 542.7 158.7 571.3 146.8 585.7L135 600L0 600L0 585.7C0 571.3 0 542.7 0 514.2C0 485.7 0 457.3 0 428.8C0 400.3 0 371.7 0 343C0 314.3 0 285.7 0 257C0 228.3 0 199.7 0 171.2C0 142.7 0 114.3 0 85.8C0 57.3 0 28.7 0 14.3L0 0Z" fill="#abffe5"></path><path d="M110 0L107.8 14.3C105.7 28.7 101.3 57.3 98.5 85.8C95.7 114.3 94.3 142.7 96.3 171.2C98.3 199.7 103.7 228.3 110.3 257C117 285.7 125 314.3 122.3 343C119.7 371.7 106.3 400.3 110 428.8C113.7 457.3 134.3 485.7 128.8 514.2C123.3 542.7 91.7 571.3 75.8 585.7L60 600L0 600L0 585.7C0 571.3 0 542.7 0 514.2C0 485.7 0 457.3 0 428.8C0 400.3 0 371.7 0 343C0 314.3 0 285.7 0 257C0 228.3 0 199.7 0 171.2C0 142.7 0 114.3 0 85.8C0 57.3 0 28.7 0 14.3L0 0Z" fill="#83ffde"></path></svg>